<?xml version="1.0" encoding="utf-8"?>
<!-- Generator: Adobe Illustrator 23.0.2, SVG Export Plug-In . SVG Version: 6.00 Build 0)  -->
<svg version="1.1" id="Layer_1" xmlns="http://www.w3.org/2000/svg" xmlns:xlink="http://www.w3.org/1999/xlink" x="0px" y="0px"
	 viewBox="0 0 110.1 228.4" style="enable-background:new 0 0 110.1 228.4;" xml:space="preserve">
<style type="text/css">
	.st0{fill:#FFFFFF;}
	.st1{fill:none;stroke:#FFFFFF;stroke-width:13;stroke-miterlimit:10;}
</style>
<g>
	<path class="st0" d="M110.1,83.4c0,1.1,0,2.2-0.1,3.2c0,0.1,0,0.2,0,0.2c0,0.1,0,0.2,0,0.3c-1.9,23.7-21.8,42.8-47.8,45.8v81.5
		h29.7c3.9,0,7,3.1,7,7s-3.1,7-7,7H18.3c-3.9,0-7-3.1-7-7s3.1-7,7-7h29.8v-81.5c-26-3-46.8-23-48-47.4c0,0,0,0,0-0.1v-0.2
		C0.1,84.6,0,84,0,83.4c0-0.2,0-0.4,0-0.7c0.1-12.4,2.8-27.8,5.8-41.6c4.3-19,9.4-35.1,9.7-36.2c1.2-3.7,5.1-5.7,8.8-4.5
		c3.7,1.2,5.7,5.1,4.5,8.8c-0.1,0.3-4.7,14.6-8.8,32c-3.5,14.7-6.5,31.7-6.1,44v0c1,19,19,34.2,40.9,34.2
		c21.7,0,39.5-14.8,40.9-33.6c0.7-11.3-2.5-29.1-5.9-44.7C86.2,23.9,81.9,9.3,81.8,9c-1.1-3.7,1-7.6,4.7-8.7c3.7-1.1,7.6,1,8.7,4.7
		c0.4,1.2,5.1,17.4,9.1,36.1c3.1,14.3,5.7,30,5.7,41.8C110.1,83.1,110.1,83.2,110.1,83.4z"/>
	<path class="st0" d="M56,91.4c-5.5-0.1-9.5-1.5-11.6-4.1C41.5,84,42,79.3,42,79c0.5-3.8-2.1-7.3-5.9-7.9c-3.8-0.6-7.4,2-8,5.9
		c-0.2,1.1-1.5,11.1,5.3,19.2c4.9,5.8,12.3,8.9,22.1,9.2h0.2c3.8,0,6.9-3,7-6.8C62.9,94.7,59.8,91.5,56,91.4z"/>
	<line class="st1" x1="14.1" y1="47.9" x2="97.1" y2="47.9"/>
	<line class="st1" x1="22.1" y1="6.9" x2="88.1" y2="6.9"/>
</g>
</svg>
