<?xml version="1.0" encoding="utf-8"?>
<!-- Generator: Adobe Illustrator 23.0.2, SVG Export Plug-In . SVG Version: 6.00 Build 0)  -->
<svg version="1.1" id="Layer_1" xmlns="http://www.w3.org/2000/svg" xmlns:xlink="http://www.w3.org/1999/xlink" x="0px" y="0px"
	 viewBox="0 0 448 514" style="enable-background:new 0 0 448 514;" xml:space="preserve">
<style type="text/css">
	.st0{fill:#DB0909;}
</style>
<image style="display:none;overflow:visible;" width="508" height="528" xlink:href="9E82FECD.jpg"  transform="matrix(1 0 0 1 -36 -12)">
</image>
<g>
	<g>
		<path class="st0" d="M396,86c15.4,0,28,12.6,28,28c0,15.4-12.6,28-28,28H52c-15.4,0-28-12.6-28-28c0-15.4,12.6-28,28-28H396
			 M396,62H52C23.3,62,0,85.3,0,114v0c0,28.7,23.3,52,52,52h344c28.7,0,52-23.3,52-52v0C448,85.3,424.7,62,396,62L396,62z"/>
	</g>
	<g>
		<path class="st0" d="M223,24c28.7,0,52,23.3,52,52h24c0-42-34-76-76-76s-76,34-76,76h24C171,47.3,194.3,24,223,24z"/>
	</g>
	<g>
		<path class="st0" d="M318.8,514H126.2C79.8,514,42,476.2,42,429.8V207c0-7.7,6.3-14,14-14s14,6.3,14,14v222.8
			c0,31,25.2,56.2,56.2,56.2h192.6c31,0,56.2-25.2,56.2-56.2V207c0-7.7,6.3-14,14-14s14,6.3,14,14v222.8
			C403,476.2,365.2,514,318.8,514z"/>
	</g>
	<g>
		<path class="st0" d="M223,447c-7.2,0-13-5.8-13-13V223c0-7.2,5.8-13,13-13s13,5.8,13,13v211C236,441.2,230.2,447,223,447z"/>
	</g>
	<g>
		<path class="st0" d="M312,447c-7.2,0-13-5.8-13-13V223c0-7.2,5.8-13,13-13s13,5.8,13,13v211C325,441.2,319.2,447,312,447z"/>
	</g>
	<g>
		<path class="st0" d="M134,447c-7.2,0-13-5.8-13-13V223c0-7.2,5.8-13,13-13s13,5.8,13,13v211C147,441.2,141.2,447,134,447z"/>
	</g>
</g>
</svg>
