<?xml version="1.0" encoding="utf-8"?>
<!-- Generator: Adobe Illustrator 23.0.2, SVG Export Plug-In . SVG Version: 6.00 Build 0)  -->
<svg version="1.1" id="Layer_1" xmlns="http://www.w3.org/2000/svg" xmlns:xlink="http://www.w3.org/1999/xlink" x="0px" y="0px"
	 viewBox="0 0 127.5 65.2" style="enable-background:new 0 0 127.5 65.2;" xml:space="preserve">
<style type="text/css">
	.st0{fill:#5D6F94;}
	.st1{fill:#E1F3F7;}
</style>
<path class="st0" d="M6.7,14C0.1,14-2.5,22.6,3,26.3l57,38.2c2.3,1.5,5.2,1.5,7.5,0l57-38.2c5.5-3.7,2.9-12.3-3.7-12.3
	C120.8,14,6.7,14,6.7,14z"/>
<path class="st1" d="M6.7,0C0.1,0-2.5,8.6,3,12.3l57,38.2c2.3,1.5,5.2,1.5,7.5,0l57-38.2C130,8.6,127.4,0,120.8,0
	C120.8,0,6.7,0,6.7,0z"/>
</svg>
