<?xml version="1.0" encoding="utf-8"?>
<!-- Generator: Adobe Illustrator 23.0.2, SVG Export Plug-In . SVG Version: 6.00 Build 0)  -->
<svg version="1.1" id="Layer_1" xmlns="http://www.w3.org/2000/svg" xmlns:xlink="http://www.w3.org/1999/xlink" x="0px" y="0px"
	 viewBox="0 0 298 302.2" style="enable-background:new 0 0 298 302.2;" xml:space="preserve">
<style type="text/css">
	.st0{fill:#FFFFFF;}
	.st1{fill:none;stroke:#353535;stroke-width:14;stroke-linecap:round;stroke-linejoin:round;stroke-miterlimit:10;}
</style>
<g>
	<g>
		<path class="st0" d="M149,0C66.8,0,0,66.8,0,149s66.8,149,149,149s149-66.8,149-149S231.2,0,149,0z M149,284
			c-74.4,0-135-60.6-135-135S74.6,14,149,14c74.4,0,135,60.6,135,135S223.4,284,149,284z"/>
		<path class="st0" d="M267,124.9c-8.3-40.6-37.7-74.8-76.7-89c-3.6-1.3-7.7,0.5-9,4.2c-1.3,3.6,0.5,7.7,4.2,9
			c34.5,12.6,60.5,42.8,67.8,78.7c0.7,3.3,3.6,5.6,6.9,5.6c0.5,0,0.9,0,1.4-0.1C265.4,132.3,267.8,128.6,267,124.9z"/>
		<path class="st0" d="M148.8,28.5c-27.3,0-53,8.9-74.4,25.7c-3,2.4-3.6,6.8-1.2,9.8c1.4,1.8,3.4,2.7,5.5,2.7c1.5,0,3-0.5,4.3-1.5
			c18.9-14.8,41.7-22.7,65.8-22.7c3.9,0,7-3.1,7-7C155.8,31.6,152.7,28.5,148.8,28.5z"/>
	</g>
	<g>
		<path class="st0" d="M239.2,166.2c-0.9-2-2.6-3.5-4.8-4c-2.1-0.5-4.4,0-6.1,1.4c-4.2,3.4-9.9,4-14.7,1.4c-3.6-2-6-5.4-6.7-9.4
			c-0.6-3.7-2.8-6.9-5.9-9c-3.2-2.1-7.2-2.6-10.9-1.6c-3.3,0.9-6.8,0.5-9.9-1.1c-4.8-2.6-7.5-7.8-6.8-13.3c0.3-2-0.3-3.9-1.6-5.4
			s-3.2-2.4-5.1-2.4c-17.3-0.4-29.6,2.3-38,5.7c-3.6,1.4-6.5,3-8.8,4.4l-20.8-11.3l1.9-3.4c3.5-6.5,4.3-14,2.1-21.1
			c-2.1-7.1-6.9-12.9-13.4-16.5c-6.5-3.5-14-4.3-21.1-2.3c-7.2,2.1-13.1,6.8-16.6,13.3c-3.9,7.2-4.3,15.4-1.7,22.6
			c-7.4,1.7-14.1,6.5-18,13.7c-3.5,6.5-4.3,14-2.2,21.1c2.1,7.1,6.9,13,13.4,16.5c4.2,2.3,8.8,3.4,13.3,3.4
			c9.8,0,19.4-5.2,24.4-14.4l1.6-2.9l21,11.4c0.1,14.7,7.5,29.6,14,40c7.8,12.4,18.4,24.4,26.4,29.9c12.3,8.4,26.5,12.8,40.8,12.8
			c5.4,0,10.8-0.6,16.1-1.9c7.5-1.8,14.4-4.8,20.4-8.8c7.2-4.8,13.1-11.1,17.1-18.4C246.3,201.8,246.6,183.5,239.2,166.2z
			 M108.7,143.7c-0.1,0.1-0.2,0.3-0.2,0.4c-0.3,0.4-0.5,0.8-0.8,1.3c-0.3,0.5-0.5,1-0.8,1.5c-0.1,0.2-0.2,0.4-0.2,0.5
			c-0.2,0.3-0.3,0.7-0.4,1c0,0,0,0,0,0.1l-23.1-12.6c-1.6-0.9-3.5-1.1-5.3-0.6c-1.8,0.5-3.3,1.7-4.2,3.4l-4.9,9
			c-3.6,6.6-12,9-18.7,5.4c-3.2-1.8-5.6-4.7-6.7-8.2c-1.1-3.5-0.7-7.2,1-10.4c2.5-4.5,7.2-7.1,12-7.1c2.2,0,4.4,0.5,6.5,1.7
			c3.4,1.9,7.7,0.6,9.5-2.8c0.6-1.1,0.9-2.2,0.9-3.3c0-2.5-1.3-4.9-3.7-6.2c-6.6-3.6-9.1-11.9-5.5-18.6c1.7-3.2,4.6-5.5,8.2-6.5
			c3.5-1,7.3-0.6,10.5,1.1c1.6,0.9,3,2.1,4.1,3.4c1.1,1.4,2,3,2.5,4.8c1.1,3.5,0.7,7.2-1,10.4l-5.2,9.5c-0.9,1.6-1.1,3.5-0.6,5.3
			c0.5,1.8,1.7,3.3,3.4,4.2l23.1,12.6C109,143.2,108.9,143.4,108.7,143.7z M226,209.7c-2.7,4.9-6.6,9.2-11.4,12.6
			c-4.9,3.5-10.6,6.1-17,7.7c-15.5,3.7-32.1,0.5-45.8-8.8c-5.4-3.7-14.9-13.8-22.4-25.8c-8.6-13.6-12.8-26.4-11.7-35.8
			c0.3-2.8,1.1-5.3,2.3-7.6c1.1-2.1,2.7-3.9,4.7-5.7c2.8-2.3,6.4-4.2,10.7-5.8c6.6-2.3,14.8-3.7,24.1-4c1.3,8.1,6.3,15.3,13.9,19.4
			c6.1,3.3,13.1,4.2,19.8,2.5c1.6,8,6.5,14.8,13.7,18.7c6.9,3.8,14.8,4.3,21.9,1.8C231.8,190,230.8,200.8,226,209.7z"/>
		<path class="st1" d="M201,146.2"/>
	</g>
	<path class="st1" d="M27,302.2"/>
</g>
</svg>
