<?xml version="1.0" encoding="utf-8"?>
<!-- Generator: Adobe Illustrator 23.0.2, SVG Export Plug-In . SVG Version: 6.00 Build 0)  -->
<svg version="1.1" id="Layer_1" xmlns="http://www.w3.org/2000/svg" xmlns:xlink="http://www.w3.org/1999/xlink" x="0px" y="0px"
	 viewBox="0 0 171.7 306.8" style="enable-background:new 0 0 171.7 306.8;" xml:space="preserve">
<style type="text/css">
	.st0{display:none;}
	.st1{display:inline;}
	.st2{fill:#FFFFFF;}
	.st3{display:inline;fill:#B3B3B3;}
	.st4{display:inline;fill:#FFFFFF;}
	.st5{fill:none;stroke:#FFFFFF;stroke-width:12;stroke-miterlimit:10;}
</style>
<g class="st0">
	<g class="st1">
		<path class="st2" d="M153.2,68.8v177.7c0,26.1-22.1,47.3-49.2,47.3H78.4c-27.1,0-49.2-21.2-49.2-47.3V68.8c0-3.9,3.1-7,7-7
			c3.9,0,7,3.1,7,7v177.7c0,18.4,15.8,33.3,35.2,33.3H104c19.4,0,35.2-14.9,35.2-33.3V68.8c0-3.9,3.1-7,7-7
			C150.1,61.8,153.2,65,153.2,68.8z"/>
	</g>
	<g class="st1">
		<path class="st2" d="M123.2,159.5v85c0,3.9-3.1,7-7,7c-3.9,0-7-3.1-7-7v-85c0-3.9,3.1-7,7-7C120.1,152.5,123.2,155.7,123.2,159.5z
			"/>
	</g>
	<g class="st1">
		<path class="st2" d="M99.2,159.5v85c0,3.9-3.1,7-7,7c-3.9,0-7-3.1-7-7v-85c0-3.9,3.1-7,7-7C96.1,152.5,99.2,155.6,99.2,159.5z"/>
	</g>
	<path class="st3" d="M43.2,100.8v145.7c0,18.4,15.8,33.3,35.2,33.3H104c19.4,0,35.2-14.9,35.2-33.3V100.8H43.2z M99.2,244.5
		c0,3.9-3.1,7-7,7c-3.9,0-7-3.1-7-7v-85c0-3.9,3.1-7,7-7c3.9,0,7,3.1,7,7V244.5z M123.2,244.5c0,3.9-3.1,7-7,7c-3.9,0-7-3.1-7-7v-85
		c0-3.9,3.1-7,7-7c3.9,0,7,3.1,7,7V244.5z"/>
	<g class="st1">
		<path class="st2" d="M164.7,306.8h-145c-3.9,0-7-3.1-7-7c0-3.9,3.1-7,7-7h145c3.9,0,7,3.1,7,7
			C171.7,303.7,168.6,306.8,164.7,306.8z"/>
	</g>
	<path class="st4" d="M92.2,69c0-9.6-7.3-17.5-16.6-18.4l-9.8-35.3c-1.9-6.7-6.9-12-13.4-14.2c-6.5-2.2-13.8-1-19.3,3.1L0,29.3
		l8.4,11.2l33.1-25c1.8-1.4,4.2-1.8,6.3-1c2.2,0.7,3.8,2.4,4.4,4.7l9.9,35.4c-4.3,3.4-7,8.6-7,14.5c0,9.4,7.1,17.2,16.2,18.4
		l3.8,13.5h14.5l-4.8-17.1C89.3,80.3,92.2,75,92.2,69z"/>
</g>
<g>
	<g>
		<path class="st2" d="M154,69v177.7c0,26.1-22.1,47.3-49.2,47.3H79.2C52,294,30,272.8,30,246.7V69c0-3.9,3.1-7,7-7c3.9,0,7,3.1,7,7
			v177.7c0,18.4,15.8,33.3,35.2,33.3h25.6c19.4,0,35.2-14.9,35.2-33.3V69c0-3.9,3.1-7,7-7C150.9,62,154,65.1,154,69z"/>
	</g>
	<g>
		<path class="st2" d="M124,159.7v85c0,3.9-3.1,7-7,7c-3.9,0-7-3.1-7-7v-85c0-3.9,3.1-7,7-7C120.9,152.7,124,155.8,124,159.7z"/>
	</g>
	<g>
		<path class="st2" d="M100,159.7v85c0,3.9-3.1,7-7,7s-7-3.1-7-7v-85c0-3.9,3.1-7,7-7S100,155.8,100,159.7z"/>
	</g>
	<g>
		<path class="st2" d="M165.5,307h-145c-3.9,0-7-3.1-7-7s3.1-7,7-7h145c3.9,0,7,3.1,7,7S169.4,307,165.5,307z"/>
	</g>
	<path class="st2" d="M93,69.1c0-9.6-7.3-17.5-16.6-18.4l-9.8-35.3c-1.9-6.7-6.9-12-13.4-14.2c-6.5-2.2-13.8-1-19.3,3.1l-33.1,25
		l8.4,11.2l33.1-25c1.9-1.4,4.2-1.8,6.4-1c2.2,0.7,3.8,2.4,4.4,4.7L63,54.6c-4.3,3.4-7,8.6-7,14.5c0,9.4,7.1,17.2,16.2,18.4
		l3.8,13.5h14.5l-4.8-17.1C90.1,80.5,93,75.1,93,69.1z"/>
</g>
<line class="st5" x1="142" y1="107" x2="40" y2="107"/>
</svg>
