<?xml version="1.0" encoding="utf-8"?>
<!-- Generator: Adobe Illustrator 23.0.2, SVG Export Plug-In . SVG Version: 6.00 Build 0)  -->
<svg version="1.1" id="Layer_1" xmlns="http://www.w3.org/2000/svg" xmlns:xlink="http://www.w3.org/1999/xlink" x="0px" y="0px"
	 viewBox="0 0 336 336" style="enable-background:new 0 0 336 336;" xml:space="preserve">
<style type="text/css">
	.st0{fill:url(#SVGID_1_);}
	.st1{fill:#3650B2;}
	.st2{fill:#FFFFFF;}
</style>
<g>
	<linearGradient id="SVGID_1_" gradientUnits="userSpaceOnUse" x1="0" y1="168" x2="336" y2="168">
		<stop  offset="0" style="stop-color:#7DCDE8"/>
		<stop  offset="1" style="stop-color:#006FFF"/>
	</linearGradient>
	<circle class="st0" cx="168" cy="168" r="168"/>
	<g>
		<polygon class="st1" points="119,86 119,145.5 143.5,145.5 143.5,111.5 233.5,111.5 233.5,238.5 143.5,238.5 143.5,203.5 
			119,203.5 119,264 258,264 258,86 		"/>
		<polygon class="st1" points="96.5,153.5 96.5,133.1 32.7,175.5 96.5,217.9 96.5,196.5 163.5,196.5 163.5,153.5 		"/>
	</g>
	<g>
		<polygon class="st2" points="116,83 116,142.5 140.5,142.5 140.5,108.5 230.5,108.5 230.5,235.5 140.5,235.5 140.5,200.5 
			116,200.5 116,261 255,261 255,83 		"/>
		<polygon class="st2" points="93.5,150.5 93.5,130.1 29.7,172.5 93.5,214.9 93.5,193.5 160.5,193.5 160.5,150.5 		"/>
	</g>
</g>
</svg>
