<?xml version="1.0" encoding="utf-8"?>
<!-- Generator: Adobe Illustrator 23.0.2, SVG Export Plug-In . SVG Version: 6.00 Build 0)  -->
<svg version="1.1" id="Layer_1" xmlns="http://www.w3.org/2000/svg" xmlns:xlink="http://www.w3.org/1999/xlink" x="0px" y="0px"
	 viewBox="0 0 298 298" style="enable-background:new 0 0 298 298;" xml:space="preserve">
<style type="text/css">
	.st0{fill:#FFFFFF;}
</style>
<g>
	<g>
		<path class="st0" d="M149,0C66.8,0,0,66.8,0,149s66.8,149,149,149s149-66.8,149-149S231.2,0,149,0z M149,284
			c-74.4,0-135-60.6-135-135S74.6,14,149,14c74.4,0,135,60.6,135,135S223.4,284,149,284z"/>
		<path class="st0" d="M267,124.9c-8.3-40.6-37.7-74.8-76.7-89c-3.6-1.3-7.7,0.5-9,4.2c-1.3,3.6,0.5,7.7,4.2,9
			c34.5,12.6,60.5,42.8,67.8,78.7c0.7,3.3,3.6,5.6,6.9,5.6c0.5,0,0.9,0,1.4-0.1C265.4,132.3,267.8,128.6,267,124.9z"/>
		<path class="st0" d="M148.8,28.5c-27.3,0-53,8.9-74.4,25.7c-3,2.4-3.6,6.8-1.2,9.8c1.4,1.8,3.4,2.7,5.5,2.7c1.5,0,3-0.5,4.3-1.5
			c18.9-14.8,41.7-22.7,65.8-22.7c3.9,0,7-3.1,7-7C155.8,31.6,152.7,28.5,148.8,28.5z"/>
	</g>
	<g>
		<path class="st0" d="M112.1,124.9c2.6-4.3,1.2-10-3.1-12.6c-4.3-2.6-10-1.2-12.6,3.1c-2.6,4.3-1.2,10,3.1,12.6
			C103.9,130.6,109.5,129.2,112.1,124.9z"/>
		<path class="st0" d="M253.6,167c-26.7-13.9-49.4,2.5-50.3,3.2c-0.4,0.3-0.8,0.6-1.1,1c-15.9-19.6-39.2-47.5-57.9-66.5
			c-0.3-0.4-0.6-0.7-1-1c-7.9-8-14.9-14.2-20.1-17.4c-27.8-17.1-69.4,7-71.1,8.1c-2,1.2-3.2,3.2-3.4,5.5
			c-0.2,2.1-3.6,51.1,24.3,68.2c5.3,3.3,14.3,6.7,25.3,10.2c0.4,0.2,0.9,0.3,1.3,0.4c25.9,8,62,16,86.6,21
			c-0.5,6.2-0.8,29.4,20.9,44.4c1.2,0.8,2.6,1.2,4,1.2c0.9,0,1.8-0.2,2.6-0.5c0.6-0.2,1.2-0.6,1.7-1c0.4-0.3,4.4-3.5,7.7-10.3
			c3.2-6.7,5.6-16.7,2.9-30.8c27.5-8.3,31.2-27.6,31.3-28.5C257.8,171.4,256.3,168.4,253.6,167z M100.3,164.2
			c-8.9-2.9-16-5.6-20-8.1c-14.4-8.8-17.7-33.5-17.8-48.2c0-1.2,0-2.3,0-3.3c12.1-6.3,37.8-16,53.4-6.4c4.1,2.5,9.7,7.5,16.3,14
			c0.3,4.9-0.1,18-9.2,31.5C118.3,150.8,111.1,158,100.3,164.2z M117.8,169.4c7.6-5.9,13.3-12.2,17.4-18.5c5.9-8.9,8.7-17.7,10-25
			c17.6,19.2,38,43.9,52.4,61.9C174.7,183.1,143,176.3,117.8,169.4z M210.1,228.4c-9.4-9.4-10.1-21-10-25.9c4.5,0.9,8,1.6,10.4,2
			c0.6,0.1,1.1,0.2,1.6,0.3c0.2,1,0.4,2,0.5,2.9C214.2,217.8,212.2,224.4,210.1,228.4z M219.3,190.1c-0.7-0.2-1.4-0.3-2.2-0.3
			c-1.6-2-3.7-4.7-6.3-7.9c0.2-0.1,0.5-0.3,0.7-0.4c0.6-0.4,13.4-9.5,29.5-4.5C238.2,181.1,232.1,186.9,219.3,190.1z"/>
	</g>
</g>
</svg>
